HIERARCHY
ROOT Hips
{
	OFFSET	0.000000	0.000000	0.000000
	CHANNELS 6 Xposition Yposition Zposition Zrotation Xrotation Yrotation
	JOINT LeftHip
	{
		OFFSET	4.740440	-3.195970	-0.322709
		CHANNELS 3 Zrotation Xrotation Yrotation
		JOINT LeftKnee
		{
			OFFSET	-1.605680	-15.592300	1.005510
			CHANNELS 3 Zrotation Xrotation Yrotation
			JOINT LeftAnkle
			{
				OFFSET	-0.632401	-16.421000	-1.413730
				CHANNELS 3 Zrotation Xrotation Yrotation
				End Site
				{
					OFFSET	0.008423	-3.021750	-1.660875
				}
			}
		}
	}
	JOINT RightHip
	{
		OFFSET	-4.740440	-3.195970	-0.322709
		CHANNELS 3 Zrotation Xrotation Yrotation
		JOINT RightKnee
		{
			OFFSET	1.605680	-15.592300	1.005510
			CHANNELS 3 Zrotation Xrotation Yrotation
			JOINT RightAnkle
			{
				OFFSET	0.632401	-16.421000	-1.413730
				CHANNELS 3 Zrotation Xrotation Yrotation
				End Site
				{
					OFFSET	-0.008423	-3.021750	-1.660875
				}
			}
		}
	}
	JOINT Chest
	{
		OFFSET	0.000000	3.468200	0.078401
		CHANNELS 3 Zrotation Xrotation Yrotation
		JOINT LeftCollar
		{
			OFFSET	3.857650	15.070700	-0.011583
			CHANNELS 3 Zrotation Xrotation Yrotation
			JOINT LeftShoulder
			{
				OFFSET	3.979720	-1.940530	-0.165223
				CHANNELS 3 Zrotation Xrotation Yrotation
				JOINT LeftElbow
				{
					OFFSET	0.615844	-10.986600	-0.673886
					CHANNELS 3 Zrotation Xrotation Yrotation
					JOINT LeftWrist
					{
						OFFSET	0.826843	-10.854500	1.034220
						CHANNELS 3 Zrotation Xrotation Yrotation
						End Site
						{
							OFFSET	-1.679080	-8.456540	0.936217
						}
					}
				}
			}
		}
		JOINT RightCollar
		{
			OFFSET	-3.857650	15.070700	-0.011583
			CHANNELS 3 Zrotation Xrotation Yrotation
			JOINT RightShoulder
			{
				OFFSET	-3.979720	-1.940530	-0.165223
				CHANNELS 3 Zrotation Xrotation Yrotation
				JOINT RightElbow
				{
					OFFSET	-0.615845	-10.986600	-0.673886
					CHANNELS 3 Zrotation Xrotation Yrotation
					JOINT RightWrist
					{
						OFFSET	-0.826843	-10.854500	1.034220
						CHANNELS 3 Zrotation Xrotation Yrotation
						End Site
						{
							OFFSET	1.679080	-8.456540	0.936217
						}
					}
				}
			}
		}
		JOINT Neck
		{
			OFFSET	0.000000	15.101400	0.055730
			CHANNELS 3 Zrotation Xrotation Yrotation
			JOINT Head
			{
				OFFSET	0.000000	4.185120	1.488260
				CHANNELS 3 Zrotation Xrotation Yrotation
				End Site
				{
					OFFSET	0.000000	7.773420	-0.106016
				}
			}
		}
	}
}
MOTION
Frames:     8
Frame Time: 0.016667
-15.427199	33.066032	-9.227650	-0.997114	-10.820231	-5.479558	38.850327	-15.414515	0.136442	-15.880535	25.219761	9.851880	-21.604197	-3.423377	-6.887477	-37.370422	-9.527455	-20.464165	44.621578	67.923492	-31.895943	11.163589	-34.423668	0.160121	-3.406575	14.531055	-0.567574	0.477704	0.071431	3.541692	5.272330	-16.970718	-3.852512	38.065125	-138.109756	33.139954	20.894543	-20.362434	2.079727	-3.457259	-4.509812	15.615538	8.018907	-25.855551	5.933445	-35.982006	-126.487236	-24.687792	-11.697505	-14.235628	-3.818758	-7.809477	2.785323	13.225699	5.597631	-5.678460	-16.451405	
-15.299775	33.111320	-9.119576	-0.990470	-10.822881	-5.587901	38.756218	-15.352258	0.013054	-16.324635	25.493393	9.911236	-21.252010	-3.736136	-6.753241	-37.311947	-9.261992	-20.311356	42.929634	67.644264	-30.436754	11.594240	-34.122005	0.303281	-3.450134	14.524770	-0.540913	0.512462	0.162266	3.611387	4.703029	-16.857718	-4.222554	38.221561	-138.032516	33.207142	20.929678	-20.493799	2.030498	-3.314677	-4.314621	15.685623	8.787910	-25.133871	6.365201	-35.768913	-126.840019	-24.229168	-11.792209	-14.088036	-4.004697	-7.685146	2.743029	13.260112	5.473588	-5.756024	-16.366537	
-15.031875	33.234352	-9.037687	-0.976475	-10.592787	-5.951640	38.306339	-15.372999	-0.342205	-16.655100	25.620272	10.578471	-20.766956	-3.970415	-6.607092	-37.182465	-9.265675	-20.028074	40.951099	67.080933	-28.736654	11.777956	-33.627659	0.254632	-3.454727	14.226737	-0.398883	0.562586	0.247872	3.623735	3.286567	-16.259501	-5.068190	38.554340	-137.858749	33.241360	20.787489	-20.753550	1.395740	-3.132508	-4.005365	15.575131	9.092375	-24.787592	6.802509	-35.234188	-126.508476	-25.217970	-12.069287	-13.825569	-4.384495	-7.585153	2.781574	13.175786	5.241280	-5.887197	-16.009672	
-14.833577	33.324131	-8.957550	-0.961730	-10.485145	-6.074799	38.088696	-15.347075	-0.420471	-17.114925	25.709396	10.717978	-20.224546	-4.338413	-6.406070	-37.073795	-8.913111	-19.823807	38.720413	66.200623	-26.800373	12.228368	-32.916397	0.356605	-3.433073	14.125045	-0.378782	0.609424	0.157598	3.599072	2.932756	-16.013105	-5.296031	38.575371	-137.756088	33.165005	20.708708	-20.767780	1.237026	-3.147777	-4.028635	15.459085	9.185751	-24.651144	6.911521	-35.336266	-126.475327	-25.707489	-12.048935	-13.831350	-4.344696	-7.502703	2.616107	13.091026	5.086432	-5.767899	-15.767733	
-14.506942	33.560680	-8.793975	-0.924667	-10.026295	-6.503443	37.307526	-15.011938	-0.425026	-16.937510	25.301193	11.022236	-19.626804	-4.626433	-6.251509	-36.853745	-9.007776	-19.458145	36.355080	65.062096	-24.829788	12.559299	-32.041374	0.260887	-3.293805	13.690988	-0.482488	0.886032	-0.214134	3.554459	2.175238	-15.339767	-5.810444	38.280987	-137.460876	32.675293	20.546297	-20.683487	1.072932	-3.296854	-4.347995	15.191982	9.068393	-24.537378	6.815751	-36.704247	-126.345619	-27.545525	-11.823074	-14.197878	-4.198357	-7.113737	1.840884	12.841659	4.654378	-4.908792	-15.089503	
-14.305743	33.679497	-8.683825	-0.876772	-9.812780	-6.669594	36.968330	-14.859923	-0.339162	-17.149595	25.185530	11.065574	-19.119602	-4.928150	-6.097150	-36.661289	-8.702309	-19.134560	34.019211	63.723576	-22.823605	13.019451	-31.012440	0.115817	-3.252257	13.513520	-0.543218	1.001504	-0.385842	3.555994	2.004369	-15.165277	-5.862318	38.193573	-137.394119	32.561855	20.557930	-20.682606	1.145618	-3.404086	-4.553828	15.095915	8.960410	-24.622852	6.635154	-36.985054	-126.375534	-28.258949	-11.357339	-14.281118	-3.690546	-6.813323	1.430361	12.467604	4.412445	-4.334793	-14.561690	
-13.877725	33.997387	-8.440874	-0.740156	-9.071478	-7.198272	35.676765	-14.437524	-0.045110	-16.352448	24.551868	11.126492	-18.686277	-5.162225	-5.873999	-36.521965	-9.038939	-18.854656	31.788933	62.261368	-20.943783	13.275509	-29.580864	-0.105930	-3.065941	12.929179	-0.744725	1.442175	-0.989072	3.521549	1.738688	-14.699989	-5.862829	37.677547	-137.312393	32.020180	20.788595	-20.598061	1.597748	-3.722827	-5.348372	14.774015	8.364463	-25.071720	5.785071	-39.195827	-126.478477	-30.609257	-10.506976	-14.810620	-2.831647	-6.713089	0.815601	12.431067	4.210357	-3.727132	-14.083833	
-13.607789	34.139194	-8.333595	-0.624553	-8.198062	-7.797528	35.385429	-14.557546	0.755360	-16.517796	24.291849	11.091554	-18.110044	-5.187921	-5.569915	-36.335510	-9.525986	-18.711891	30.440842	61.245411	-19.751570	13.496894	-28.825260	-0.200286	-3.061881	12.091426	-0.414235	1.617799	-1.210418	3.497513	1.685005	-14.559109	-5.825910	37.455566	-137.328094	31.821712	20.859274	-20.591578	1.734043	-3.853742	-5.657785	14.659278	8.107023	-25.251692	5.452277	-39.913898	-126.551292	-31.345100	-10.280382	-14.967710	-2.543863	-6.574997	0.496645	12.312487	4.094136	-3.370653	-13.870984	
